<?xml version="1.0" encoding="UTF-8"?>
<svg id="Camada_2" data-name="Camada 2" xmlns="http://www.w3.org/2000/svg" viewBox="0 0 1990.72 587.12">
  <defs>
    <style>
      .cls-1 {
        fill: #f6f8ed;
        stroke-width: 0px;
      }
    </style>
  </defs>
  <g id="Camada_1-2" data-name="Camada 1">
    <g>
      <g>
        <path class="cls-1" d="m561.52,371.06c0-124.44,94.67-215.29,216.06-215.29s215.28,90.85,215.28,215.29-96.95,216.06-215.28,216.06-216.06-91.61-216.06-216.06Zm342.02,0c0-77.87-54.21-135.13-125.96-135.13s-125.97,57.26-125.97,135.13,53.44,135.89,125.97,135.89,125.96-58.02,125.96-135.89Z"/>
        <path class="cls-1" d="m1076.86,169.61h82.45v52.68c21.37-41.23,59.55-58.02,109.93-58.02h25.2v78.63h-35.89c-57.26,0-95.43,36.65-95.43,101.54v238.19h-86.27V169.61Z"/>
        <path class="cls-1" d="m1336.51,371.03c0-122.15,89.32-215.29,206.89-215.29,57.26,0,103.82,21.38,135.13,57.26V0h85.5c-.02,195.71-.05,391.41-.07,587.12h-81.69c.03-20.88.05-41.76.08-62.64-30.54,40.46-81.69,62.61-138.18,62.61-119.1,0-207.66-93.9-207.66-216.06Zm342.02,0c0-77.87-54.21-135.13-125.96-135.13s-125.97,57.26-125.97,135.13,52.68,135.89,125.97,135.89,125.96-57.26,125.96-135.89Z"/>
        <path class="cls-1" d="m1902.93,487.87h87.8v99.25h-87.8v-99.25Z"/>
      </g>
      <polygon class="cls-1" points="469.07 13.81 469.07 587.12 321.04 587.12 92.42 98.26 88 98.26 88 587.12 0 587.12 0 13.81 148.03 13.81 376.65 502.67 380.99 502.67 380.99 13.81 469.07 13.81"/>
    </g>
  </g>
</svg>