<?xml version="1.0" encoding="UTF-8"?>
<svg id="Camada_2" data-name="Camada 2" xmlns="http://www.w3.org/2000/svg" viewBox="0 0 3543.95 801.33">
  <defs>
    <style>
      .cls-1 {
        letter-spacing: 0em;
      }

      .cls-2 {
        letter-spacing: .06em;
      }

      .cls-3 {
        font-family: PlusJakartaSans-Light, 'Plus Jakarta Sans';
        font-size: 143.74px;
        font-weight: 300;
      }

      .cls-3, .cls-4 {
        fill: #f6f8ed;
      }

      .cls-4 {
        stroke-width: 0px;
      }
    </style>
  </defs>
  <g id="Camada_1-2" data-name="Camada 1">
    <text class="cls-3" transform="translate(2558.31 594.92)"><tspan class="cls-2"><tspan x="0" y="0">Design </tspan></tspan><tspan class="cls-2" x="0" y="172.49">&amp; </tspan><tspan class="cls-1" x="145.61" y="172.49">T</tspan><tspan class="cls-2" x="217.91" y="172.49">ecnologia</tspan></text>
    <path class="cls-4" d="m740.21,489.15c0-164.04,124.79-283.81,284.81-283.81s283.8,119.76,283.8,283.81-127.81,284.81-283.8,284.81-284.81-120.77-284.81-284.81Zm450.87,0c0-102.65-71.46-178.13-166.05-178.13s-166.06,75.48-166.06,178.13,70.45,179.14,166.06,179.14,166.05-76.49,166.05-179.14Z"/>
    <path class="cls-4" d="m1419.57,223.59h108.69v69.44c28.18-54.35,78.5-76.49,144.91-76.49h33.22v103.66h-47.31c-75.48,0-125.79,48.31-125.79,133.85v314h-113.72V223.59Z"/>
    <path class="cls-4" d="m1761.85,489.11c0-161.02,117.75-283.81,272.73-283.81,75.48,0,136.87,28.19,178.13,75.48V0h112.71c-.03,257.99-.07,515.98-.1,773.97h-107.69c.03-27.53.07-55.05.1-82.58-40.26,53.34-107.68,82.53-182.16,82.53-157,0-273.74-123.79-273.74-284.81Zm450.87,0c0-102.65-71.46-178.13-166.05-178.13s-166.06,75.48-166.06,178.13,69.44,179.14,166.06,179.14,166.05-75.48,166.05-179.14Z"/>
    <polygon class="cls-4" points="618.35 18.21 618.35 773.97 423.21 773.97 121.83 129.53 116.01 129.53 116.01 773.97 0 773.97 0 18.21 195.13 18.21 496.52 662.65 502.24 662.65 502.24 18.21 618.35 18.21"/>
  </g>
</svg>