<?xml version="1.0" encoding="UTF-8"?>
<svg id="Camada_2" data-name="Camada 2" xmlns="http://www.w3.org/2000/svg" viewBox="0 0 608.08 139.72">
  <defs>
    <style>
      .cls-1 {
        fill: #f6f8ed;
        stroke-width: 0px;
      }
    </style>
  </defs>
  <g id="Camada_1-2" data-name="Camada 1">
    <g>
      <path class="cls-1" d="m338.64,79.19c0-23.46,17.85-40.59,40.73-40.59s40.59,17.13,40.59,40.59-18.28,40.73-40.59,40.73-40.73-17.27-40.73-40.73Zm64.48,0c0-14.68-10.22-25.47-23.75-25.47s-23.75,10.79-23.75,25.47,10.08,25.62,23.75,25.62,23.75-10.94,23.75-25.62Z"/>
      <path class="cls-1" d="m435.8,41.21h15.54v9.93c4.03-7.77,11.23-10.94,20.72-10.94h4.75v14.82h-6.77c-10.79,0-17.99,6.91-17.99,19.14v44.91h-16.26V41.21Z"/>
      <path class="cls-1" d="m484.75,79.18c0-23.03,16.84-40.59,39-40.59,10.79,0,19.57,4.03,25.47,10.79V9.24h16.12c0,36.9,0,73.79-.01,110.69h-15.4c0-3.94,0-7.87.01-11.81-5.76,7.63-15.4,11.8-26.05,11.8-22.45,0-39.15-17.7-39.15-40.73Zm64.48,0c0-14.68-10.22-25.47-23.75-25.47s-23.75,10.79-23.75,25.47,9.93,25.62,23.75,25.62,23.75-10.79,23.75-25.62Z"/>
      <path class="cls-1" d="m591.53,101.21h16.55v18.71h-16.55v-18.71Z"/>
    </g>
    <polygon class="cls-1" points="321.21 11.84 321.21 119.92 293.31 119.92 250.2 27.76 249.37 27.76 249.37 119.92 232.78 119.92 232.78 11.84 260.69 11.84 303.79 104 304.61 104 304.61 11.84 321.21 11.84"/>
    <g>
      <g>
        <path class="cls-1" d="m191.41,18.61c.02-.83-.26-1.25-1.02-1.59-6.87-3.04-13.72-6.12-20.59-9.15-.37-.17-.92-.15-1.31-.01-2.76,1.01-5.52,2.05-8.26,3.13-21.39,8.46-42.76,16.93-64.14,25.38-14.08,5.56-28.17,11.09-42.24,16.65-.82.33-1.38.31-2.08-.35-2.03-1.93-4.2-3.72-6.25-5.64-.39-.37-.71-1.04-.71-1.58-.05-4.14-.05-8.27-.01-12.41h-.04v-5.59c-2.17.11-4.34.2-6.5.23-3.14.04-6.27.14-9.4.25v22.89h.01c-.01,10.32-.01,20.64-.02,30.96,0,.77.2,1.31.75,1.86,3.77,3.78,7.48,7.62,11.24,11.4,4.57,4.6,9.16,9.18,13.68,13.71,9.81-6.95,19.55-13.85,29.3-20.75.05.06.11.13.17.19-6.46,17.1-12.91,34.2-19.44,51.53,11.92-5.28,23.53-10.42,35.16-15.53.72-.32,1.1-.75,1.3-1.5,1.01-3.84,2.07-7.66,3.1-11.49,3.26-12.03,6.5-24.05,9.79-36.06.13-.5.52-1.12.95-1.31,8.99-3.79,18-7.51,26.98-11.29.58-.25,1.17-.79,1.46-1.35,3.18-6.28,6.3-12.6,9.44-18.9.79-1.59,1.28-3.54,2.52-4.61,1.21-1.03,3.19-1.18,4.85-1.68,10.11-3.09,20.22-6.19,30.34-9.25.77-.23,1.03-.55,1.01-1.38-.08-2.25-.08-4.5-.04-6.76Zm-63.71,31.1c-2.68,0-4.93-2.29-4.94-5,0-2.75,2.14-4.94,4.81-4.94,2.64,0,5.02,2.35,5.03,4.96,0,2.67-2.27,4.98-4.9,4.98Z"/>
        <path class="cls-1" d="m190.85,34.03c-2.42,5.62-4.77,10.99-7.05,16.38-5.54,13.07-11.05,26.14-16.56,39.22-.32.77-.73,1.29-1.53,1.64-18.29,7.93-36.56,15.88-54.84,23.83-.46.2-.93.4-1.51.64.67-2.63,1.43-5.13,1.93-7.69.29-1.49,1.04-2.21,2.4-2.76,15.06-6.17,30.08-12.43,45.17-18.55,1.74-.71,2.66-1.68,3.34-3.35,6.23-15.33,12.53-30.63,18.84-45.93.18-.44.74-.87,1.21-1.01,2.77-.83,5.58-1.58,8.6-2.41Z"/>
        <path class="cls-1" d="m176.57,37.5c-2.33,5.65-4.52,11.04-6.76,16.4-3.78,9.07-7.61,18.12-11.38,27.2-.4.97-.96,1.53-1.96,1.97-14.23,6.13-28.43,12.32-42.64,18.5-.18.08-.36.14-.64.25.78-3.02,1.52-5.96,2.34-8.88.09-.32.57-.6.93-.75,12.03-5.06,24.08-10.09,36.1-15.16.38-.16.74-.58.91-.97,5.03-11.83,10.03-23.67,15.05-35.51.16-.38.52-.82.89-.94,2.28-.72,4.58-1.36,7.16-2.11Z"/>
        <path class="cls-1" d="m153.01,101.56c0,5.81,0,11.34-.02,16.87,0,.34-.24.74-.47,1.02-4.38,5.29-8.78,10.56-13.22,15.9-3.48-7.78-6.93-15.49-10.43-23.28,7.97-3.47,15.89-6.91,24.14-10.5Z"/>
        <path class="cls-1" d="m117.42,87.85c.58-2.67,1.09-5.12,1.67-7.56.08-.33.48-.7.83-.84,8.51-3.6,17.04-7.15,25.54-10.77.64-.27,1.29-.9,1.61-1.53,3.83-7.63,7.61-15.29,11.37-22.96.42-.86.97-1.34,1.87-1.58,1.32-.35,2.61-.8,4.19-1.3-.86,2.04-1.61,3.86-2.41,5.66-3.82,8.63-7.64,17.26-11.49,25.88-.2.45-.61.96-1.05,1.15-10.64,4.61-21.29,9.19-32.12,13.85Z"/>
      </g>
      <path class="cls-1" d="m.45,16.39c4.04,4.71,8.07,9.41,12.11,14.12.34.15.69.3,1.03.45,3.93,0,7.87.01,11.8.02,7.9,0,15.8,0,23.7-.01,4.74.02,9.47.01,14.21,0,.34,0,.8-.1,1-.33,4.13-4.78,8.24-9.57,12.32-14.38.25-.29.37-.78.38-1.18.02-4.7.01-9.4.01-14.1V.01h-.89c-8.77,0-17.54.01-26.31-.01-.65,0-1.05.2-1.45.69-3.08,3.77-6.18,7.52-9.28,11.26-.21.26-.48.47-.73.72-.31-.42-.53-.76-.79-1.08-3.04-3.72-6.08-7.44-9.16-11.14-.21-.25-.69-.42-1.04-.42C18.52.01,9.66.01.81.01.57.01.33.04,0,.06v.92c0,4.73.01,9.45.02,14.18.14.41.29.82.43,1.23Z"/>
    </g>
  </g>
</svg>